{"title":"Shirin Farhad Ki Toh Nikal Padi (2012)-1CD-DVDRip-By-K@rtik [EXD","uid":7685648,"size":745708664,"categoryP":"video","categoryS":"movies","magnet":"?xt=urn:btih:aa0c2e0bf865d1eefd3975e83ec73f5b1bb6db31&amp;dn=Shirin+Farhad+Ki+Toh+Nikal+Padi+%282012%29-1CD-DVDRip-By-K%40rtik+%5BEXD&amp;tr=udp%3A%2F%2Ftracker.openbittorrent.com%3A80&amp;tr=udp%3A%2F%2Fopen.demonii.com%3A1337&amp;tr=udp%3A%2F%2Ftracker.coppersurfer.tk%3A6969&amp;tr=udp%3A%2F%2Fexodus.desync.com%3A6969","seeders":1,"leechers":0,"uploader":"TeamExD","files":4,"time":1348938834,"description":"Format                                   : Matroska\nFormat version                           : Version 2\nFile size                                : 697 MiB\nDuration                                 : 1h 51mn\nOverall bit rate                         : 872 Kbps\nMovie name                               : Shirin Farhad Ki Toh Nikal Padi (2012)-1CD-DVDRip-By-K@rtik [EXD Exclusive]\n\nCodec ID                                 : V_MPEG4/ISO/AVC\nDuration                                 : 1h 51mn\nBit rate                                 : 743 Kbps\nWidth                                    : 720 pixels\nHeight                                   : 304 pixels\nDisplay aspect ratio                     : 2.35:1\nFrame rate                               : 23.976 fps\nColor space                              : YUV\nChroma subsampling                       : 4:2:0\nBit depth                                : 8 bits\nScan type                                : Progressive\nBits/(Pixel*Frame)                       : 0.142\nStream size                              : 581 MiB (83%)\nTitle                                    : K@rtik\n\nCodec ID                                 : A_AC3\nDuration                                 : 1h 51mn\nBit rate mode                            : Constant\nBit rate                                 : 128 Kbps\nChannel(s)                               : 2 channels\nChannel positions                        : Front: L R\nSampling rate                            : 48.0 KHz\nBit depth                                : 16 bits\nCompression mode                         : Lossy\nStream size                              : 102 MiB (15%)\nTitle                                    : K@rtik\nLanguage                                 : Hindi\n &lt;a href=&quot;\nhttp://imageshack.us/a/img203/3930/62444380.png&quot; rel=&quot;nofollow&quot; target=&quot;_NEW&quot;&gt;\nhttp://imageshack.us/a/img203/3930/62444380.png&lt;/a&gt; &lt;a href=&quot;\nhttp://imageshack.us/a/img266/984/61828791.png&quot; rel=&quot;nofollow&quot; target=&quot;_NEW&quot;&gt;\nhttp://imageshack.us/a/img266/984/61828791.png&lt;/a&gt; &lt;a href=&quot;\nhttp://imageshack.us/a/img7/3139/30573024.png&quot; rel=&quot;nofollow&quot; target=&quot;_NEW&quot;&gt;\nhttp://imageshack.us/a/img7/3139/30573024.png&lt;/a&gt; &lt;a href=&quot;\nhttp://imageshack.us/a/img35/7237/11459505.png&quot; rel=&quot;nofollow&quot; target=&quot;_NEW&quot;&gt;\nhttp://imageshack.us/a/img35/7237/11459505.png&lt;/a&gt; &lt;a href=&quot;\nhttp://imageshack.us/a/img9/8823/23754379.png&quot; rel=&quot;nofollow&quot; target=&quot;_NEW&quot;&gt;\nhttp://imageshack.us/a/img9/8823/23754379.png&lt;/a&gt; &lt;a href=&quot;\nhttp://imageshack.us/a/img138/8919/71579759.png&quot; rel=&quot;nofollow&quot; target=&quot;_NEW&quot;&gt;\nhttp://imageshack.us/a/img138/8919/71579759.png&lt;/a&gt; &lt;a href=&quot;\nhttp://imageshack.us/a/img191/7773/48038638.png&quot; rel=&quot;nofollow&quot; target=&quot;_NEW&quot;&gt;\nhttp://imageshack.us/a/img191/7773/48038638.png&lt;/a&gt; &lt;a href=&quot;\nhttp://imageshack.us/a/img208/5113/91294447.png&quot; rel=&quot;nofollow&quot; target=&quot;_NEW&quot;&gt;\nhttp://imageshack.us/a/img208/5113/91294447.png&lt;/a&gt; &lt;a href=&quot;\nhttp://imageshack.us/a/img696/3932/89985746.png&quot; rel=&quot;nofollow&quot; target=&quot;_NEW&quot;&gt;\nhttp://imageshack.us/a/img696/3932/89985746.png&lt;/a&gt; &lt;a href=&quot;\nhttp://imageshack.us/a/img692/4793/12387286.png&quot; rel=&quot;nofollow&quot; target=&quot;_NEW&quot;&gt;\nhttp://imageshack.us/a/img692/4793/12387286.png&lt;/a&gt; &lt;a href=&quot;\nhttp://imageshack.us/a/img9/561/31398453.png&quot; rel=&quot;nofollow&quot; target=&quot;_NEW&quot;&gt;\nhttp://imageshack.us/a/img9/561/31398453.png&lt;/a&gt;\n\n","torrent":{"xt":"urn:btih:aa0c2e0bf865d1eefd3975e83ec73f5b1bb6db31","amp;dn":"Shirin+Farhad+Ki+Toh+Nikal+Padi+%282012%29-1CD-DVDRip-By-K%40rtik+%5BEXD","amp;tr":["udp%3A%2F%2Ftracker.openbittorrent.com%3A80","udp%3A%2F%2Fopen.demonii.com%3A1337","udp%3A%2F%2Ftracker.coppersurfer.tk%3A6969","udp%3A%2F%2Fexodus.desync.com%3A6969"],"infoHash":"aa0c2e0bf865d1eefd3975e83ec73f5b1bb6db31","infoHashBuffer":{"type":"Buffer","data":[170,12,46,11,248,101,209,238,253,57,117,232,62,199,63,91,27,182,219,49]},"announce":[],"urlList":[]}}